# xmcd
#
# Track frame offsets:
# 150
# 15567
# 29672
# 42582
# 56750
# 68897
# 83062
# 97517
# 111287
# 125512
# 141122
# 157975
# 173980
# 189560
# 204155
#
# Disc length: 2960 seconds
#
# Revision: 0
# Processed by: cddbd v1.5PL3 Copyright (c) Steve Scherf et al.
# Submitted via: plextools 2.11
#
DISCID=c70b8e0f
DTITLE=Various Artist - Bästa DansBanden 3 [CD2]
DYEAR=1900
DGENRE=Pop
TTITLE0=Lasse Stefanz - VI Drömde Många Drömmar
TTITLE1=Wizex - Jag Måste Ge Mig Av
TTITLE2=Blackjack - Den Stora Kärleken
TTITLE3=Thor Görans - Nu Brinner Blodet I Mej
TTITLE4=Ingmar Nordströms - The Wonder Of You
TTITLE5=Tonix - Man Lär Så Länge Man Lever
TTITLE6=Berth Idoffs - Varje Steg
TTITLE7=Denis King - La Vie En Rose
TTITLE8=Sten and Stanley - Spara Dina Tårar
TTITLE9=Tommys - Vår Dotter
TTITLE10=Lotta and Anders Engbergs Orkester - Tusen Vackra Bilder
TTITLE11=Curt Haagers - Soldränkta Stränder
TTITLE12=Matz Bladhs - Alla Stunder
TTITLE13=Carina Jaarnek - Dröm Är Dröm, Och Saga Saga
TTITLE14=Lotta, Sven-Erik, Svenne, Christer and Sten - Jordens Barn
EXTD=
EXTT0=
EXTT1=
EXTT2=
EXTT3=
EXTT4=
EXTT5=
EXTT6=
EXTT7=
EXTT8=
EXTT9=
EXTT10=
EXTT11=
EXTT12=
EXTT13=
EXTT14=
PLAYORDER=
